<?xml version="1.0" encoding="utf-8"?>
<!-- Generator: Adobe Illustrator 27.2.0, SVG Export Plug-In . SVG Version: 6.00 Build 0)  -->
<svg version="1.1" id="Layer_1" xmlns="http://www.w3.org/2000/svg" xmlns:xlink="http://www.w3.org/1999/xlink" x="0px" y="0px"
	 viewBox="0 0 589.14 541.75" style="enable-background:new 0 0 589.14 541.75;" xml:space="preserve">
<g>
	<path d="M41.39,52.1c0,146.23,0,291.92,0,437.78c48.73,0,145.2,0,193.99,0c12.85-131.75-88.86-59.76-88.86-271.41h25.36
		c0.27,2.8,0.56,5.72,0.87,8.77c10.58,103.27,110.4,175.51,214.16,175.83c70.5,0.22,81.41,0.01,151.9,0c2.81,0,5.61,0.16,8.8,0
		c0-48.71,0-214.36,0-263.59c-4.14,0-7.29,0-10.44,0c-68.75,0-35.47,84.52-146.68,117.62c-68.48,20.38-134.77,18.32-152.92-38.63
		h11.95c251.4,0,148.05-124.3,298.23-124.3c0-12.13,0-17.86,0-20.35c0,0.02,0-0.4,0-1.71c0-2.47,0-8.11,0-20.01
		C352.69,52.1,236.08,52.1,41.39,52.1z"/>
</g>
</svg>
